<?xml version="1.0" encoding="utf-8"?>
<!-- Generator: Adobe Illustrator 16.0.0, SVG Export Plug-In . SVG Version: 6.00 Build 0)  -->
<!DOCTYPE svg PUBLIC "-//W3C//DTD SVG 1.1//EN" "http://www.w3.org/Graphics/SVG/1.1/DTD/svg11.dtd">
<svg version="1.1" id="Layer_1" xmlns="http://www.w3.org/2000/svg" xmlns:xlink="http://www.w3.org/1999/xlink" x="0px" y="0px"
	 width="53.77px" height="36.256px" viewBox="0 0 53.77 36.256" enable-background="new 0 0 53.77 36.256" xml:space="preserve">
<g>
	<path d="M10.926,345.448c-1.457,3.46-4.312,6.542-7.958,7.661c-4.679,1.437-2.281-6.019-1.627-8.026
		c0.241-0.74,0.141-1.374-0.157-1.872c0.051-0.224,0.115-0.448,0.157-0.671c0.207-1.098-0.115-2.244-1.149-2.823
		c-10.388-5.82-16.647,4.175-15.08,13.871c0.09,0.557,0.231,1.161,0.42,1.77c-0.138,0.077-0.273,0.158-0.412,0.233
		c-1.559,0.838-4.31,2.044-6.088,1.188c-2.243-1.081,0.562-6.971,1.122-8.306c0.958-2.284-2.649-4.327-4.178-2.432
		c-3.194,3.956-5.939,8.987-10.577,11.172c-0.312-3.196-0.2-6.383,0.348-9.587c0.456-2.667-3.085-4.54-4.569-1.926
		c-3.059,5.384-5.028,11.268-8.6,16.384c-2.755,3.946-5.008,2.461-5.385-1.881c-0.24-2.764,0.133-5.649,0.758-8.34
		c0.556-2.391-2.36-4.26-4.178-2.432c-4.281,4.303-8.395,8.788-13.035,12.715c-0.944,0.8-1.943,1.514-2.995,2.164
		c-0.507,0.313-0.836,0.395-1.012,0.442c-0.637-2.604,1.999-8.571,2.576-10.347c0.882-2.716-3.208-4.392-4.569-1.926
		c-2.919,5.287-5.731,10.735-9.816,15.238c-1.622,1.788-4.135,4.095-6.684,2.839c-2.796-1.378-3.188-4.704-3.179-7.456
		c9.803-8.699,15.495-25.078,15.016-36.479c-0.088-2.1-2.701-3.413-4.268-1.768c-4.874,5.117-8.089,12.173-10.744,18.623
		c-2.152,5.23-4.31,11.037-4.861,16.855c-1.467,1.189-3.072,2.189-4.808,2.864c0.161-4.036-1.234-7.514-5.189-9.388
		c-5.211-2.47-11.029,2.52-10.818,7.867c0.007,0.173,0.025,0.339,0.043,0.505c-0.881-0.904-2.333-1.223-3.454-0.038
		c-5,5.283-10.124,14.161-8,21.657c1.921,6.777,9.987,6.098,14.551,2.887c3.917-2.755,9.57-10.55,11.858-18.02
		c0.631-0.112,1.223-0.249,1.754-0.408c1.439-0.43,2.825-1.024,4.157-1.757c0.058,0.416,0.118,0.832,0.199,1.245
		c1.359,6.947,8.701,10.067,14.534,6.448c2.953-1.833,5.346-4.559,7.414-7.596c0.473,2.846,2.146,4.512,6.211,2.816
		c5.17-2.156,9.547-6.646,13.597-11.044c-0.042,6.044,1.528,12.491,8.001,11.362c4.829-0.842,7.924-5.611,10.357-10.739
		c0.089,0.728,0.19,1.458,0.315,2.19c0.243,1.421,1.845,1.977,3.075,1.746c4.273-0.802,7.294-3.281,9.926-6.278
		c0.7,3.608,3.328,6.057,8.933,5.056c1.881-0.336,3.721-1.028,5.477-1.967c0.927,0.646,2.055,0.932,3.41,0.569
		c2.159-0.577,3.83-2.22,5.161-4.295c0.998,1.233,2.521,2.081,4.79,2.257c6.451,0.502,11.862-6.298,14.051-11.496
		C16.998,343.807,12.157,342.523,10.926,345.448z M-112.402,358.183c2.492-0.056,2.615,3.193,2.278,5.936
		c-2.144-0.101-4.786-0.696-5.453-2.474C-116.252,359.845-113.892,358.216-112.402,358.183z M-117.952,380.471
		c-2.201,2.405-7.995,6.427-9.501,1.114c-1.426-5.031,3.728-12.489,6.964-15.908c0.341-0.36,0.532-0.749,0.626-1.14
		c1.505,2.821,5.054,4.079,8.671,4.378C-112.555,373.17-114.966,377.209-117.952,380.471z M-85.778,335.659
		c-1.303,5.998-3.963,11.89-7.302,16.908c1.033-3.251,2.368-6.42,3.67-9.374C-88.325,340.734-87.144,338.143-85.778,335.659z
		 M-10.089,351.939c-0.476-4.855,1.238-10.15,6.072-8.632c-1.119,3.508-3.277,6.525-6.026,8.94
		C-10.061,352.143-10.08,352.034-10.089,351.939z"/>
	<path d="M-69.107,340.638c0.649,0.118,1.28,0.11,1.936,0.11c1.363,0,2.5-1.137,2.5-2.5c0-0.146-0.019-0.287-0.044-0.426
		c0.123-0.778-0.112-1.614-0.688-2.189c-0.953-0.954-2.459-0.934-3.448-0.068c-0.022,0.013-0.042,0.028-0.064,0.042
		c-0.133,0.081-0.275,0.148-0.417,0.213c-0.55,0.253-1.012,0.552-1.336,1.106C-71.463,338.281-70.744,340.339-69.107,340.638z
		 M-67.051,340.243C-67.273,340.421-67.281,340.346-67.051,340.243L-67.051,340.243z M-69.043,335.723
		C-69.129,335.794-69.188,335.834-69.043,335.723L-69.043,335.723z"/>
</g>
<g>
	<path d="M-50.862,485.553c2.12-3.309,3.164-7.296,2.53-11.234c-1.055-6.559-6.797-7.118-11.184-3.05
		c-1.729,1.604-0.306,3.907,1.507,4.188c-0.486,1.057-0.966,2.116-1.436,3.177c-0.354,0.6-0.726,1.197-1.129,1.809
		c-0.383,0.582-0.471,1.15-0.374,1.664c-3.465,8.254-6.307,16.689-7.878,25.6c-0.556,3.152,4.262,4.501,4.821,1.33
		c1.026-5.816,2.589-11.421,4.519-16.905c0.508,0.088,1.075,0.024,1.666-0.268c1.331-0.658,2.566-1.512,3.688-2.502
		c0.036,0.043,0.073,0.079,0.107,0.132c1.017,1.56,1.171,3.811,1.304,5.604c0.296,3.996-0.066,9.076-2.766,12.257
		c-3.021,3.56-7.823,5.607-12.441,5.612c-5.908,0.007-6.574-5.278-5.41-9.93c0.783-3.129-4.039-4.456-4.821-1.33
		c-1.768,7.066-0.063,14.425,7.929,16.018c6.939,1.383,15.233-2.47,19.307-8.091c3.896-5.376,4.049-14.023,2.277-20.182
		C-49.153,487.686-49.927,486.405-50.862,485.553z M-56.634,484.708c0.506-1.224,1.03-2.442,1.564-3.659
		c0.735-1.264,1.364-2.559,1.89-3.931c-0.041,0.426-0.096,0.854-0.163,1.254c-0.404,2.444-1.508,4.563-3.098,6.272
		C-56.505,484.669-56.57,484.683-56.634,484.708z"/>
	<path d="M2.093,451.774c-4.982,6.819-8.521,14.994-10.745,23.108c-1.021,3.727-1.714,7.955-1.34,11.949
		c-0.646,0.235-1.212,0.726-1.501,1.539c-1.454,4.088-4.044,4.455-6.401,2.508c3.702-5.108,5.954-11.046,2.304-17.104
		c-0.753-1.251-2.17-1.473-3.42-0.896c-7.508,3.458-9.257,11.739-5.137,18.303c-1.092,1.222-2.255,2.396-3.402,3.505
		c0.093-4.991-0.005-9.987,0.301-14.982c0.171-2.797-4.408-3.445-4.911-0.665c-1.079,5.975-2.001,12.397-5.314,17.556
		c-1.699-4.874,0.316-11.599,0.891-16.224c0.397-3.194-4.608-3.156-5,0c-0.93,7.483-3.349,16.098,2.066,22.434
		c0.859,1.006,2.666,0.946,3.535,0c1.338-1.455,2.436-3.021,3.363-4.663c-0.013,0.271-0.02,0.544-0.035,0.815
		c-0.011,0.198-0.022,0.418-0.034,0.629c-0.092,0.093-0.187,0.188-0.274,0.277c-5.788,5.985-12.397,13.752-8.281,22.436
		c0.434,0.916,1.865,1.541,2.823,1.149c7.263-2.973,9.202-11.091,10.164-18.171c0.176-1.294,0.299-2.589,0.401-3.884
		c2.105-1.994,4.1-3.764,5.445-5.182c0.451-0.475,0.903-0.964,1.353-1.463c4.458,3.686,9.62,2.749,12.728-1.783
		c0.694,1.393,1.606,2.691,2.811,3.839c0.845,0.806,2.008,0.925,3.029,0.391c9.902-5.169,10.821-20.713,0.069-25.235
		c-0.035-0.015-0.073-0.021-0.109-0.032c2.061-6.207,5.084-12.354,8.937-17.629C8.316,451.689,3.975,449.199,2.093,451.774z
		 M-37.617,517.26c-0.323-3.352,1.588-6.82,4.232-10.061C-33.996,511.086-35.171,515.01-37.617,517.26z M-18.911,478.738
		c0.61,2.694-0.283,5.441-1.909,8.084C-22.068,483.744-21.292,480.804-18.911,478.738z M-3.299,491.674
		c-2.178-3.229-2.188-7.464-1.448-11.552c0.687-0.062,1.355-0.404,1.824-1.157c0.188-0.302,0.43-0.809,0.689-1.323
		C2.186,480.907,0.611,488.171-3.299,491.674z"/>
	<path d="M42.99,476.878c-2.712,1.861-4.777,2.031-6.281,1.181c5.217-7.348,7.404-15.218-1.862-20.515
		c-1.249-0.714-2.644-0.232-3.42,0.897c-3.638,5.29-3.717,13.877-0.912,19.563c-1.592,1.819-3.223,3.449-4.436,4.704
		c-0.495,0.512-1.028,1.028-1.577,1.548c-0.261-4.531-0.733-9.015-1.083-13.221c-0.222-2.663-4.263-3.582-4.911-0.665
		c-1.217,5.48-3.371,10.83-6.436,15.566c-0.627-4.906,0.163-9.964,0.68-14.901c0.336-3.205-4.667-3.173-5,0
		c-0.747,7.124-1.891,14.462,0.756,21.332c0.607,1.576,2.856,2.69,4.178,1.103c2.615-3.14,4.839-6.606,6.63-10.284
		c0.094,1.877,0.155,3.757,0.163,5.633c-4.43,4.025-8.814,8.468-9.985,13.798c-0.701,3.189-1.374,12.174,4.091,12.055
		c4.775-0.104,7.842-5.085,9.13-9.165c1.418-4.493,1.923-9.369,1.971-14.324c2.679-2.562,5.971-5.735,8.913-9.169
		c2.877,2.306,6.908,2.618,11.915-0.819C48.153,479.383,45.656,475.047,42.99,476.878z M18.36,502.299
		c-0.487,2.508-1.326,4.354-3.022,6.253c-1.959,2.194-1.064-5.517-0.368-6.837c1.012-1.919,2.581-3.621,4.204-5.215
		C18.995,498.45,18.731,500.386,18.36,502.299z M34.498,463.539c2.629,2.833,1.625,6.485-0.573,9.988
		C33.212,470.442,33.468,466.531,34.498,463.539z"/>
</g>
<polygon fill="#FFFFFF" points="35.642,0 34.228,1.414 49.942,17.128 0,17.128 0,19.128 49.942,19.128 34.228,34.842 35.642,36.256 
	53.77,18.128 "/>
</svg>
